<?xml version="1.0" encoding="UTF-8"?>
<svg version="1.1" xmlns="http://www.w3.org/2000/svg" width="1086" height="1201">
<path d="M0 0 C6.31580464 3.53844405 12.64763034 7.04787859 18.97865295 10.55900574 C28.64359069 15.92532016 38.29376265 21.31747981 47.9356842 26.72502136 C55.60511539 31.02396482 63.28968439 35.29512317 70.97865295 39.55900574 C79.29067645 44.16943335 87.58492395 48.80887552 95.85365295 53.49650574 C108.64162881 60.74495386 121.49696859 67.87085186 134.35365295 74.99650574 C148.15117964 82.64360951 161.9364797 90.30858812 175.66029358 98.08732605 C186.37224031 104.15201539 197.13942891 110.11681913 207.90541077 116.08488464 C227.44367776 126.91642178 246.95268758 137.79887759 266.43763733 148.72599792 C279.36571172 155.97504153 292.30724459 163.19893869 305.26722717 170.39079285 C313.83524349 175.14745124 322.38787831 179.93104712 330.93519592 184.72477722 C338.60481682 189.02375385 346.28952539 193.295035 353.97865295 197.55900574 C362.29067645 202.16943335 370.58492395 206.80887552 378.85365295 211.49650574 C387.08217636 216.16057656 395.33400033 220.78074801 403.60365295 225.37150574 C405.28334167 226.30470642 405.28334167 226.30470642 406.9969635 227.25675964 C412.24828965 230.17203585 417.50293614 233.08095881 422.76765442 235.9719696 C471.07775383 262.50315301 471.07775383 262.50315301 479.5997467 285.35197449 C481.66639234 292.60129622 482.6464487 299.28670221 482.61092186 306.82896805 C482.61442793 307.78263553 482.61793401 308.73630301 482.62154633 309.71886951 C482.63083745 312.90898741 482.62594287 316.09892185 482.62107849 319.28904724 C482.62481589 321.60156425 482.62941777 323.91407999 482.63480914 326.22659373 C482.6470433 332.577459 482.64677817 338.9282716 482.64442039 345.27914596 C482.64308224 351.42628131 482.65303652 357.57340402 482.66164616 363.7205318 C482.6809762 377.84479183 482.68661401 391.96903732 482.68776028 406.09330902 C482.68867977 417.00164385 482.69279856 427.90997299 482.69916153 438.81830597 C482.70095665 441.95956253 482.70273628 445.10081911 482.70451128 448.24207568 C482.70495338 449.02302614 482.70539548 449.80397659 482.70585097 450.60859221 C482.71815732 472.57175467 482.7260523 494.53491515 482.72516441 516.49808121 C482.72513326 517.32594383 482.7251021 518.15380645 482.72507 519.00675582 C482.72490378 523.20259901 482.7247057 527.39844221 482.72450058 531.5942854 C482.72444075 532.84422419 482.72444075 532.84422419 482.7243797 534.11941427 C482.72429883 535.80453434 482.72421523 537.4896544 482.72412892 539.17477446 C482.72290345 565.39157816 482.73791663 591.60833012 482.76527405 617.82511902 C482.79600557 647.28738515 482.81320591 676.7496173 482.8113476 706.21190047 C482.81119834 709.35441446 482.81110093 712.49692845 482.81103897 715.63944244 C482.81100401 716.80007107 482.81100401 716.80007107 482.81096834 717.98414674 C482.81090684 730.42692059 482.82366952 742.86964947 482.8409035 755.31240996 C482.85787004 767.82091331 482.85982582 780.32935098 482.84668486 792.83785948 C482.83995151 799.6120859 482.84005586 806.38613985 482.85739136 813.16035271 C482.87310502 819.36462481 482.87027541 825.56860488 482.85282309 831.7728698 C482.84974951 834.0144067 482.85339901 836.2559653 482.86454324 838.49747661 C482.96288668 859.68528458 479.13319943 874.93753239 464.6231842 891.07463074 C457.30204102 898.14340439 447.43815117 902.73972757 438.60365295 907.62150574 C436.38987236 908.85284711 434.17633595 910.08462758 431.96302795 911.31681824 C430.30303772 912.23962585 430.30303772 912.23962585 428.60951233 913.18107605 C423.67828526 915.93067147 418.76565353 918.71275424 413.85365295 921.49650574 C402.75930637 927.77681086 391.63751471 934.00751513 380.51087952 940.23039246 C375.29071587 943.15048709 370.07224522 946.07360406 364.85365295 948.99650574 C358.58106448 952.50974426 352.30811177 956.02232323 346.03334045 959.53166199 C335.96161174 965.16584686 325.89703952 970.81192823 315.85365295 976.49650574 C302.65721121 983.96571898 289.42233574 991.36586974 276.18763733 998.76701355 C265.06394328 1004.9884496 253.9455289 1011.21848107 242.85365295 1017.49650574 C231.75892592 1023.77614412 220.63751902 1030.00751272 209.51087952 1036.23039246 C204.29071587 1039.15048709 199.07224522 1042.07360406 193.85365295 1044.99650574 C187.58106448 1048.50974426 181.30811177 1052.02232323 175.03334045 1055.53166199 C164.96161174 1061.16584686 154.89703952 1066.81192823 144.85365295 1072.49650574 C133.75892592 1078.77614412 122.63751902 1085.00751272 111.51087952 1091.23039246 C106.29071587 1094.15048709 101.07224522 1097.07360406 95.85365295 1099.99650574 C89.58106448 1103.50974426 83.30811177 1107.02232323 77.03334045 1110.53166199 C66.96161174 1116.16584686 56.89703952 1121.81192823 46.85365295 1127.49650574 C35.76920097 1133.77032842 24.65803792 1139.99580929 13.54164124 1146.21281433 C9.23158151 1148.62430892 4.9233936 1151.03913666 0.6153717 1153.45426941 C-2.52391862 1155.21293319 -5.66517603 1156.96804621 -8.8065033 1158.72306824 C-12.49141057 1160.78343354 -16.16588129 1162.86024661 -19.8299408 1164.95744324 C-39.01013205 1175.88968406 -57.62718936 1181.6241838 -79.7151947 1175.61271667 C-85.21063457 1173.85917809 -90.23624268 1171.05922471 -95.27330017 1168.29631042 C-97.92327559 1166.84482183 -100.58861895 1165.42407918 -103.25572205 1164.00431824 C-114.69786685 1157.88750108 -126.00580892 1151.55515142 -137.2518158 1145.08634949 C-146.27453711 1139.90315491 -155.37262454 1134.85295354 -164.45689392 1129.7787323 C-169.68886654 1126.85517136 -174.91747539 1123.92560803 -180.14634705 1120.99650574 C-186.41891035 1117.48322231 -192.69188827 1113.97068823 -198.96665955 1110.46134949 C-209.98805225 1104.29591693 -220.99680024 1098.10916604 -231.98716736 1091.88859558 C-242.13627379 1086.14738878 -252.31220462 1080.45433964 -262.48912048 1074.76261902 C-268.74963612 1071.26056442 -275.00783317 1067.7543682 -281.26646423 1064.24894714 C-286.49909753 1061.31837789 -291.73228927 1058.3888153 -296.96665955 1055.46134949 C-307.98805225 1049.29591693 -318.99680024 1043.10916604 -329.98716736 1036.88859558 C-340.13627379 1031.14738878 -350.31220462 1025.45433964 -360.48912048 1019.76261902 C-366.74963612 1016.26056442 -373.00783317 1012.7543682 -379.26646423 1009.24894714 C-384.49909753 1006.31837789 -389.73228927 1003.3888153 -394.96665955 1000.46134949 C-405.98805225 994.29591693 -416.99680024 988.10916604 -427.98716736 981.88859558 C-439.18584218 975.5536627 -450.4167273 969.27636403 -461.64634705 962.99650574 C-474.77547674 955.65439835 -487.89600611 948.29821985 -500.98716736 940.88859558 C-507.9887912 936.92787543 -515.00187907 932.988008 -522.02134705 929.05900574 C-523.57329773 928.1902179 -523.57329773 928.1902179 -525.15660095 927.30387878 C-530.47417281 924.32816789 -535.79367805 921.35595617 -541.11509705 918.38713074 C-546.33283568 915.4756777 -551.54174821 912.5488256 -556.74839783 909.61759949 C-559.49564746 908.08080609 -562.2546262 906.56758369 -565.0174408 905.05900574 C-583.83137004 894.67180734 -595.71149355 882.88703548 -602.64634705 861.99650574 C-603.43980558 859.22847169 -603.77210555 856.78300543 -603.77514821 853.90584862 C-603.7800565 852.68722476 -603.7800565 852.68722476 -603.78506395 851.44398224 C-603.78358033 850.55524568 -603.7820967 849.66650912 -603.78056812 848.75084114 C-603.78292035 847.79986573 -603.78527258 846.84889032 -603.78769609 845.86909747 C-603.79439361 842.65806639 -603.79392764 839.4470757 -603.79351807 836.23603821 C-603.79681623 833.92030045 -603.8005417 831.60456327 -603.80465955 829.28882682 C-603.81363968 823.57603419 -603.81790809 817.86325138 -603.82017851 812.15045245 C-603.82313989 805.30902414 -603.83183701 798.46760612 -603.84059279 791.62618321 C-603.86144247 775.08770696 -603.8719084 758.54922893 -603.8807224 742.0107426 C-603.88492876 734.18595205 -603.89015082 726.36116227 -603.89540693 718.53637236 C-603.91329891 691.74928218 -603.92829413 664.96219178 -603.93572712 638.17509651 C-603.93620188 636.49317451 -603.93667776 634.81125251 -603.93715478 633.12933051 C-603.93739116 632.29524903 -603.93762753 631.46116755 -603.93787107 630.60181087 C-603.93907227 626.37595395 -603.94028772 622.15009703 -603.94151306 617.92424011 C-603.94175321 617.08560585 -603.94199336 616.24697158 -603.94224079 615.38292416 C-603.95013125 588.20097365 -603.97355693 561.01906681 -604.00606901 533.83713537 C-604.04038207 505.09696103 -604.0600797 476.35681224 -604.06337136 447.61661708 C-604.06378889 444.46024568 -604.06426846 441.30387429 -604.06479454 438.1475029 C-604.06491773 437.3703191 -604.06504092 436.59313531 -604.06516785 435.79240048 C-604.06749821 423.29468567 -604.0831492 410.79702162 -604.10363639 398.29932489 C-604.12391233 385.73082734 -604.12936336 373.16239065 -604.11986575 360.59387977 C-604.11511501 353.78715694 -604.11723347 346.98060844 -604.1366272 340.17390633 C-604.15423947 333.93854777 -604.15327641 327.70347407 -604.13772991 321.46811257 C-604.13535092 319.21631212 -604.13969236 316.96449204 -604.15155856 314.7127216 C-604.25417918 293.94727799 -601.29584476 278.09311268 -586.70884705 262.30900574 C-580.56233274 256.49699561 -573.70235706 252.48589122 -566.3065033 248.44963074 C-563.33648423 246.82724147 -560.38172048 245.17890614 -557.42759705 243.52775574 C-552.83127379 240.96218632 -548.2296373 238.40659615 -543.62290955 235.85978699 C-537.07674037 232.23977024 -530.54626762 228.59216557 -524.02134705 224.93400574 C-522.99847595 224.36069519 -521.97560486 223.78738464 -520.92173767 223.19670105 C-518.86078958 222.04139987 -516.79991697 220.88596404 -514.73912048 219.73039246 C-509.5426396 216.81711433 -504.34440009 213.90697747 -499.14634705 210.99650574 C-497.06300539 209.82985394 -494.97967205 208.66318727 -492.89634705 207.49650574 C-380.39634705 144.49650574 -380.39634705 144.49650574 -377.27085876 142.7462616 C-375.18911972 141.58046821 -373.10741395 140.41461542 -371.02574158 139.248703 C-365.79328782 136.31818514 -360.56024619 133.38872658 -355.32603455 130.46134949 C-345.29490099 124.84978158 -335.27188658 119.22493804 -325.27134705 113.55900574 C-315.77512417 108.17967574 -306.23928106 102.87385758 -296.69371033 97.58268738 C-289.49206843 93.58731221 -282.31042391 89.55881748 -275.14634705 85.49650574 C-265.69267827 80.13590584 -256.19836888 74.85113322 -246.69322205 69.58244324 C-239.49176318 65.58711332 -232.31026573 61.55872778 -225.14634705 57.49650574 C-215.69267827 52.13590584 -206.19836888 46.85113322 -196.69322205 41.58244324 C-189.49176318 37.58711332 -182.31026573 33.55872778 -175.14634705 29.49650574 C-166.83753372 24.78508366 -158.50037893 20.12726259 -150.14634705 15.49650574 C-141.71149888 10.81991215 -133.29081663 6.12022046 -124.89634705 1.37150574 C-123.50838928 0.58852112 -123.50838928 0.58852112 -122.09239197 -0.21028137 C-117.21853232 -2.96388643 -112.36272978 -5.74500987 -107.5252533 -8.56208801 C-106.50979431 -9.14845032 -105.49433533 -9.73481262 -104.44810486 -10.33894348 C-102.52945905 -11.44744564 -100.61557907 -12.56426176 -98.70787048 -13.69148254 C-63.09770015 -34.18265159 -32.06614307 -17.96782655 0 0 Z " fill="#00599B" transform="translate(603.6463470458984,23.003494262695313)"/>
<path d="M0 0 C1.5573587 -0.00101212 1.5573587 -0.00101212 3.1461792 -0.00204468 C20.06802528 0.01535559 36.61645786 0.71752254 53.375 3.25 C54.58768555 3.43224121 55.80037109 3.61448242 57.04980469 3.80224609 C102.01445494 10.74352625 143.72195642 24.89829936 184.375 45.25 C185.16310059 45.64010254 185.95120117 46.03020508 186.76318359 46.43212891 C210.26207604 58.12121389 232.37966739 73.28516357 252.375 90.25 C253.4068991 91.10885807 254.43948427 91.96689233 255.47265625 92.82421875 C266.3692894 101.90201785 276.69796041 111.49684147 286.75 121.5 C287.40395752 122.14928467 288.05791504 122.79856934 288.73168945 123.4675293 C293.14773733 127.89820171 297.30329915 132.50255958 301.375 137.25 C302.26427247 138.27087728 303.15359131 139.29171417 304.04296875 140.3125 C316.11715409 154.38968973 326.74041434 169.34141255 336.83935547 184.890625 C337.85557244 186.45194787 338.88572264 188.00429805 339.93017578 189.546875 C340.39794434 190.25328125 340.86571289 190.9596875 341.34765625 191.6875 C341.764104 192.30496094 342.18055176 192.92242187 342.60961914 193.55859375 C343.375 195.25 343.375 195.25 342.375 198.25 C340.13549805 199.80541992 340.13549805 199.80541992 337.13671875 201.48046875 C336.02103516 202.11017578 334.90535156 202.73988281 333.75585938 203.38867188 C332.5247799 204.07168726 331.29365894 204.75462787 330.0625 205.4375 C328.7904691 206.15202271 327.51899265 206.8675333 326.24804688 207.58398438 C323.60419046 209.07334979 320.95798523 210.55841127 318.31005859 212.04052734 C312.30904622 215.40404321 306.34391428 218.82993452 300.375 222.25 C298.0420512 223.5840066 295.70852469 224.9170011 293.375 226.25 C292.20832269 226.91664805 291.04165602 227.58331471 289.875 228.25 C226.87499999 264.25 226.87499999 264.25 225.12535095 265.24977112 C223.9574819 265.91714377 222.78964544 266.58457347 221.62184143 267.25205994 C218.72383308 268.90839274 215.82516406 270.56354152 212.92553711 272.21704102 C207.45226984 275.33960274 201.98488288 278.47109241 196.53530884 281.63485718 C193.95893902 283.12983613 191.3796174 284.6196798 188.80004883 286.10913086 C187.57037007 286.82108407 186.34214507 287.53555488 185.11547852 288.25268555 C183.41531632 289.24642085 181.70971747 290.23083693 180.00390625 291.21484375 C179.03525635 291.7780835 178.06660645 292.34132324 177.06860352 292.92163086 C174.45568356 294.21021035 172.24516698 294.83540945 169.375 295.25 C168.7459375 294.35539062 168.116875 293.46078125 167.46875 292.5390625 C159.13734665 280.7437476 150.27294385 269.76199649 140.375 259.25 C139.39080078 258.18458984 139.39080078 258.18458984 138.38671875 257.09765625 C132.32958482 250.75517554 125.36338167 245.51359843 118.375 240.25 C117.54097656 239.6209375 116.70695313 238.991875 115.84765625 238.34375 C72.94058114 207.24528872 19.64547599 195.7842343 -32.5078125 203.20703125 C-47.98991757 205.68703055 -63.21715316 210.06324475 -77.625 216.25 C-78.35605957 216.56275879 -79.08711914 216.87551758 -79.84033203 217.19775391 C-102.49992339 227.05617852 -122.36626375 240.81290945 -140.18066406 257.86865234 C-141.46301618 259.09508039 -142.75797661 260.30829487 -144.0546875 261.51953125 C-165.73582362 282.31336109 -181.67785956 310.80883454 -190.625 339.25 C-190.89538086 340.09852539 -191.16576172 340.94705078 -191.44433594 341.82128906 C-201.7423489 374.8016156 -202.38887323 409.51042546 -195.625 443.25 C-195.48610352 443.99523926 -195.34720703 444.74047852 -195.20410156 445.50830078 C-188.90873221 478.75521959 -169.55809578 513.97231444 -145.3125 537.47265625 C-142.625 540.25 -142.625 540.25 -142.625 542.25 C-141.72394531 542.65412109 -141.72394531 542.65412109 -140.8046875 543.06640625 C-138.61021126 544.25803044 -137.41167921 545.35067082 -135.75 547.1875 C-109.31099097 574.18429403 -70.3117865 590.85158213 -33.625 597.25 C-31.95244141 597.56130859 -31.95244141 597.56130859 -30.24609375 597.87890625 C-10.8362698 600.92567335 11.05902238 600.69543636 30.375 597.25 C31.76132021 597.03903097 33.14806294 596.8308247 34.53515625 596.625 C44.4868554 595.08809275 53.87484736 592.56090725 63.375 589.25 C64.0335498 589.02441406 64.69209961 588.79882812 65.37060547 588.56640625 C87.56515208 580.8955549 108.45841797 569.45335085 126.375 554.25 C127.23222656 553.52296875 128.08945312 552.7959375 128.97265625 552.046875 C131.49410954 549.83291601 133.94124187 547.56006938 136.375 545.25 C136.89529785 544.76225098 137.4155957 544.27450195 137.95166016 543.77197266 C151.0623264 531.41005516 161.69929696 517.42126852 171.375 502.25 C177.49130721 503.93121092 182.7900957 507.02526611 188.3125 510.0625 C189.3737207 510.6414502 190.43494141 511.22040039 191.52832031 511.81689453 C199.54378331 516.20461835 207.49425371 520.70244558 215.43408203 525.22509766 C223.12082077 529.58487694 230.88965811 533.78128589 238.6875 537.9375 C247.68219219 542.73203285 256.64294713 547.57544927 265.5390625 552.55078125 C271.74041726 556.01890687 277.96523414 559.4445961 284.1875 562.875 C285.43067592 563.56060675 286.67383993 564.24623511 287.91699219 564.93188477 C291.73616571 567.03821777 295.55556376 569.14414343 299.375 571.25 C304.43768759 574.04132658 309.50025971 576.83286226 314.5625 579.625 C315.16771484 579.95880676 315.77292969 580.29261353 316.39648438 580.63653564 C326.40025592 586.15472988 336.39361101 591.69142193 346.375 597.25 C345.80510322 600.92325111 344.84075287 603.54316319 342.890625 606.69921875 C342.37435547 607.53815674 341.85808594 608.37709473 341.32617188 609.24145508 C340.76478516 610.1311499 340.20339844 611.02084473 339.625 611.9375 C339.04298828 612.86651123 338.46097656 613.79552246 337.86132812 614.75268555 C328.38889635 629.70694308 317.77060026 643.71691991 306.375 657.25 C305.97002289 657.73649017 305.56504578 658.22298035 305.14779663 658.72421265 C297.85201602 667.4772722 290.19646263 675.74652118 282.11108398 683.7746582 C280.30278392 685.57215805 278.50554023 687.38022316 276.70898438 689.18945312 C269.90343286 696.00314087 262.94413966 702.28465343 255.375 708.25 C254.08071824 709.3221115 252.78995501 710.39849512 251.50390625 711.48046875 C218.44201303 739.0145195 180.45637475 759.88756058 140.375 775.25 C139.43914063 775.61818848 138.50328125 775.98637695 137.5390625 776.36572266 C92.50195819 794.07868524 45.12487359 800.46968945 -3 800.5625 C-4.08310455 800.56626648 -5.16620911 800.57003296 -6.28213501 800.57391357 C-19.86053494 800.59788569 -33.16126121 800.03253279 -46.625 798.25 C-47.83961914 798.09345947 -49.05423828 797.93691895 -50.30566406 797.77563477 C-127.04625369 787.43151799 -198.2354068 757.26724164 -257.625 707.25 C-258.11414886 706.8423642 -258.60329773 706.43472839 -259.10726929 706.01473999 C-267.69761678 698.84623647 -275.8406539 691.35364685 -283.72241211 683.41333008 C-285.44748477 681.67745269 -287.18311991 679.9526491 -288.91992188 678.22851562 C-295.6150991 671.54123975 -301.73782558 664.66601132 -307.625 657.25 C-308.57115865 656.13615237 -309.52426653 655.02811745 -310.48828125 653.9296875 C-317.31262545 646.11488824 -323.3481038 637.88742837 -329.20361328 629.32714844 C-330.52118428 627.40171146 -331.85139571 625.48563979 -333.18359375 623.5703125 C-340.3316322 613.18427373 -346.52286071 602.27435256 -352.625 591.25 C-353.06344238 590.46641113 -353.50188477 589.68282227 -353.95361328 588.87548828 C-368.20299116 563.29897894 -378.89704946 535.46676058 -386.625 507.25 C-386.8322168 506.51249512 -387.03943359 505.77499023 -387.25292969 505.01513672 C-390.752226 492.545254 -393.42903547 480.011636 -395.625 467.25 C-395.76679688 466.43982422 -395.90859375 465.62964844 -396.0546875 464.79492188 C-402.3633036 428.16328784 -404.1827104 387.80991029 -398.06933594 351.05078125 C-397.59331035 348.05025072 -397.21604692 345.04728904 -396.8515625 342.03125 C-392.23313081 305.25719408 -381.18844954 269.37946037 -365.76708984 235.74414062 C-364.71951198 233.45639896 -363.69479782 231.15993802 -362.67578125 228.859375 C-347.31145013 194.64614369 -325.24133421 162.48549202 -299.9609375 134.83203125 C-298.66801431 133.40289709 -297.38190314 131.96715892 -296.12573242 130.50561523 C-291.38115855 124.98804513 -286.34412942 119.81955454 -281.1875 114.6875 C-280.37990234 113.87603516 -279.57230469 113.06457031 -278.74023438 112.22851562 C-273.86443816 107.36057726 -268.86326018 102.72362315 -263.625 98.25 C-262.64917969 97.39277344 -261.67335938 96.53554688 -260.66796875 95.65234375 C-234.2703042 72.86585082 -204.64311379 54.95256439 -173.625 39.25 C-172.8937793 38.87633301 -172.16255859 38.50266602 -171.40917969 38.11767578 C-151.57757789 28.05739988 -130.24377993 20.48026225 -108.76757812 14.82910156 C-105.79983725 14.02697287 -102.8738425 13.09705 -99.9375 12.1875 C-84.12038928 7.7028839 -67.69175217 5.2771402 -51.4375 3 C-50.2817749 2.83693359 -49.1260498 2.67386719 -47.93530273 2.50585938 C-31.96644312 0.36009023 -16.08630677 0.00945104 0 0 Z " fill="#FEFEFE" transform="translate(543.625,199.75)"/>
<path d="M0 0 C6.31580464 3.53844405 12.64763034 7.04787859 18.97865295 10.55900574 C28.64359069 15.92532016 38.29376265 21.31747981 47.9356842 26.72502136 C55.60511539 31.02396482 63.28968439 35.29512317 70.97865295 39.55900574 C79.29067645 44.16943335 87.58492395 48.80887552 95.85365295 53.49650574 C108.64162881 60.74495386 121.49696859 67.87085186 134.35365295 74.99650574 C148.15117964 82.64360951 161.9364797 90.30858812 175.66029358 98.08732605 C186.37224031 104.15201539 197.13942891 110.11681913 207.90541077 116.08488464 C227.44367776 126.91642178 246.95268758 137.79887759 266.43763733 148.72599792 C279.36571172 155.97504153 292.30724459 163.19893869 305.26722717 170.39079285 C313.83524349 175.14745124 322.38787831 179.93104712 330.93519592 184.72477722 C338.60481682 189.02375385 346.28952539 193.295035 353.97865295 197.55900574 C362.29067645 202.16943335 370.58492395 206.80887552 378.85365295 211.49650574 C387.08217636 216.16057656 395.33400033 220.78074801 403.60365295 225.37150574 C405.28334167 226.30470642 405.28334167 226.30470642 406.9969635 227.25675964 C412.24828965 230.17203585 417.50293614 233.08095881 422.76765442 235.9719696 C460.1445532 256.49880289 460.1445532 256.49880289 467.35365295 265.99650574 C467.35365295 266.98650574 467.35365295 267.97650574 467.35365295 268.99650574 C466.40619202 269.52268494 466.40619202 269.52268494 465.43959045 270.05949402 C453.67937285 276.59836141 441.95711775 283.18266325 430.35365295 289.99650574 C421.20454965 295.36852519 411.97962098 300.58727136 402.7091217 305.74650574 C395.54011231 309.74615232 388.43281528 313.84013546 381.35365295 317.99650574 C372.29181036 323.31489849 363.16172596 328.49521683 353.98377991 333.61027527 C343.2050809 339.62261074 332.49329008 345.75018981 321.78482056 351.8862915 C317.37015169 354.41568365 312.95237585 356.93959479 308.53334045 359.46134949 C307.24533299 360.19653319 305.95732839 360.93172193 304.66932678 361.66691589 C302.81133771 362.72743477 300.9532789 363.7878302 299.09495544 364.84776306 C297.39053386 365.82001369 295.68653797 366.79301047 293.9825592 367.76603699 C292.52958435 368.59518616 292.52958435 368.59518616 291.04725647 369.44108582 C288.46535984 370.93200066 285.90535192 372.45458241 283.35365295 373.99650574 C282.6988092 372.8943573 282.04396545 371.79220886 281.36927795 370.65666199 C260.47573269 335.79792066 233.66814222 302.13160229 202.35365295 275.99650574 C201.42810608 275.1934198 200.5025592 274.39033386 199.54896545 273.56291199 C173.69873764 251.19578999 144.78676629 233.37502828 114.35365295 217.99650574 C113.60357971 217.61607117 112.85350647 217.2356366 112.08070374 216.84367371 C72.33420197 196.87183122 28.34207868 185.34310001 -15.64634705 179.99650574 C-16.35335754 179.90897034 -17.06036804 179.82143494 -17.7888031 179.73124695 C-31.51210585 178.06977905 -45.08195973 177.67239362 -58.89634705 177.74650574 C-59.92949036 177.74960754 -60.96263367 177.75270935 -62.02708435 177.75590515 C-76.98809923 177.80854201 -91.79206472 178.06116288 -106.64634705 179.99650574 C-108.20313171 180.18986511 -108.20313171 180.18986511 -109.79136658 180.38713074 C-152.10804819 185.75200424 -193.17623933 197.50676317 -231.64634705 215.99650574 C-232.9897113 216.64039246 -232.9897113 216.64039246 -234.36021423 217.29728699 C-258.89801782 229.13547655 -282.19001829 243.14736414 -303.64634705 259.99650574 C-304.4661908 260.63588074 -305.28603455 261.27525574 -306.13072205 261.93400574 C-326.32647167 277.88478888 -346.77785433 295.27844815 -362.7205658 315.57463074 C-364.5492606 317.87440919 -366.46680103 320.02561779 -368.45884705 322.18400574 C-385.38490024 341.13852503 -399.18512266 363.42595138 -411.35289001 385.64006042 C-412.53982437 387.80244064 -413.7484016 389.95101457 -414.9627533 392.09806824 C-438.29555828 433.9729515 -452.15011512 482.53916027 -457.64634705 529.99650574 C-457.73174744 530.69511719 -457.81714783 531.39372864 -457.90513611 532.11351013 C-459.5792172 545.97163331 -459.97090474 559.67150006 -459.89634705 573.62150574 C-459.8929129 574.67643219 -459.88947876 575.73135864 -459.88594055 576.81825256 C-459.73863292 615.46804586 -455.85261066 654.94206107 -443.39146423 691.76554871 C-442.53646446 694.32550543 -441.7203627 696.89657787 -440.90415955 699.46916199 C-433.89258162 721.34254959 -424.87196087 742.10957803 -414.72447205 762.69841003 C-413.59899857 765.0974322 -412.60739296 767.52754603 -411.64634705 769.99650574 C-421.93331904 776.58180392 -432.58492647 782.48422419 -443.2518158 788.42619324 C-448.84060214 791.54059956 -454.4072264 794.69139319 -459.95884705 797.87150574 C-460.79601257 798.35103699 -461.6331781 798.83056824 -462.49571228 799.32463074 C-464.25895547 800.33512697 -466.0220534 801.34587671 -467.78501892 802.3568573 C-472.66322932 805.152255 -477.54568959 807.94021448 -482.4276886 810.72898865 C-485.41871032 812.43766073 -488.40946765 814.14679547 -491.4002533 815.85588074 C-492.6113523 816.54794022 -493.82245256 817.23999751 -495.03355408 817.93205261 C-495.63177979 818.27389587 -496.23000549 818.61573914 -496.84635925 818.96794128 C-507.94635518 825.3107961 -519.04635111 831.65365092 -530.14634705 837.99650574 C-531.01246109 838.49143021 -531.01246109 838.49143021 -531.89607239 838.99635315 C-533.06364957 839.66353721 -534.23123177 840.33071249 -535.39881897 840.99787903 C-538.30159573 842.65655804 -541.20426813 844.315419 -544.10679626 845.97453308 C-549.52209386 849.06975103 -554.93811907 852.16366302 -560.35710144 855.25242615 C-562.88726953 856.69471275 -565.4169711 858.1378165 -567.94664001 859.58097839 C-569.70937218 860.58616497 -571.47276952 861.59018482 -573.2361908 862.59416199 C-574.32287048 863.21420105 -575.40955017 863.83424011 -576.52915955 864.47306824 C-577.56330994 865.061203 -578.59746033 865.64933777 -579.66294861 866.2552948 C-583.35253425 868.40866017 -586.9484648 870.69869408 -590.52085876 873.04093933 C-592.64634705 873.99650574 -592.64634705 873.99650574 -594.84507751 873.76017761 C-597.30583942 872.71690529 -597.7898682 871.51887657 -598.89634705 869.12150574 C-599.2315033 868.42283386 -599.56665955 867.72416199 -599.91197205 867.00431824 C-600.64634705 864.99650574 -600.64634705 864.99650574 -600.64634705 861.99650574 C-601.30634705 861.99650574 -601.96634705 861.99650574 -602.64634705 861.99650574 C-603.42631652 859.23092504 -603.77211287 856.77607548 -603.77514821 853.90584862 C-603.7800565 852.68722476 -603.7800565 852.68722476 -603.78506395 851.44398224 C-603.78358033 850.55524568 -603.7820967 849.66650912 -603.78056812 848.75084114 C-603.78292035 847.79986573 -603.78527258 846.84889032 -603.78769609 845.86909747 C-603.79439361 842.65806639 -603.79392764 839.4470757 -603.79351807 836.23603821 C-603.79681623 833.92030045 -603.8005417 831.60456327 -603.80465955 829.28882682 C-603.81363968 823.57603419 -603.81790809 817.86325138 -603.82017851 812.15045245 C-603.82313989 805.30902414 -603.83183701 798.46760612 -603.84059279 791.62618321 C-603.86144247 775.08770696 -603.8719084 758.54922893 -603.8807224 742.0107426 C-603.88492876 734.18595205 -603.89015082 726.36116227 -603.89540693 718.53637236 C-603.91329891 691.74928218 -603.92829413 664.96219178 -603.93572712 638.17509651 C-603.93620188 636.49317451 -603.93667776 634.81125251 -603.93715478 633.12933051 C-603.93739116 632.29524903 -603.93762753 631.46116755 -603.93787107 630.60181087 C-603.93907227 626.37595395 -603.94028772 622.15009703 -603.94151306 617.92424011 C-603.94175321 617.08560585 -603.94199336 616.24697158 -603.94224079 615.38292416 C-603.95013125 588.20097365 -603.97355693 561.01906681 -604.00606901 533.83713537 C-604.04038207 505.09696103 -604.0600797 476.35681224 -604.06337136 447.61661708 C-604.06378889 444.46024568 -604.06426846 441.30387429 -604.06479454 438.1475029 C-604.06491773 437.3703191 -604.06504092 436.59313531 -604.06516785 435.79240048 C-604.06749821 423.29468567 -604.0831492 410.79702162 -604.10363639 398.29932489 C-604.12391233 385.73082734 -604.12936336 373.16239065 -604.11986575 360.59387977 C-604.11511501 353.78715694 -604.11723347 346.98060844 -604.1366272 340.17390633 C-604.15423947 333.93854777 -604.15327641 327.70347407 -604.13772991 321.46811257 C-604.13535092 319.21631212 -604.13969236 316.96449204 -604.15155856 314.7127216 C-604.25417918 293.94727799 -601.29584476 278.09311268 -586.70884705 262.30900574 C-580.56233274 256.49699561 -573.70235706 252.48589122 -566.3065033 248.44963074 C-563.33648423 246.82724147 -560.38172048 245.17890614 -557.42759705 243.52775574 C-552.83127379 240.96218632 -548.2296373 238.40659615 -543.62290955 235.85978699 C-537.07674037 232.23977024 -530.54626762 228.59216557 -524.02134705 224.93400574 C-522.99847595 224.36069519 -521.97560486 223.78738464 -520.92173767 223.19670105 C-518.86078958 222.04139987 -516.79991697 220.88596404 -514.73912048 219.73039246 C-509.5426396 216.81711433 -504.34440009 213.90697747 -499.14634705 210.99650574 C-497.06300539 209.82985394 -494.97967205 208.66318727 -492.89634705 207.49650574 C-380.39634705 144.49650574 -380.39634705 144.49650574 -377.27085876 142.7462616 C-375.18911972 141.58046821 -373.10741395 140.41461542 -371.02574158 139.248703 C-365.79328782 136.31818514 -360.56024619 133.38872658 -355.32603455 130.46134949 C-345.29490099 124.84978158 -335.27188658 119.22493804 -325.27134705 113.55900574 C-315.77512417 108.17967574 -306.23928106 102.87385758 -296.69371033 97.58268738 C-289.49206843 93.58731221 -282.31042391 89.55881748 -275.14634705 85.49650574 C-265.69267827 80.13590584 -256.19836888 74.85113322 -246.69322205 69.58244324 C-239.49176318 65.58711332 -232.31026573 61.55872778 -225.14634705 57.49650574 C-215.69267827 52.13590584 -206.19836888 46.85113322 -196.69322205 41.58244324 C-189.49176318 37.58711332 -182.31026573 33.55872778 -175.14634705 29.49650574 C-166.83753372 24.78508366 -158.50037893 20.12726259 -150.14634705 15.49650574 C-141.71149888 10.81991215 -133.29081663 6.12022046 -124.89634705 1.37150574 C-123.50838928 0.58852112 -123.50838928 0.58852112 -122.09239197 -0.21028137 C-117.21853232 -2.96388643 -112.36272978 -5.74500987 -107.5252533 -8.56208801 C-106.50979431 -9.14845032 -105.49433533 -9.73481262 -104.44810486 -10.33894348 C-102.52945905 -11.44744564 -100.61557907 -12.56426176 -98.70787048 -13.69148254 C-63.09770015 -34.18265159 -32.06614307 -17.96782655 0 0 Z " fill="#659AD2" transform="translate(603.6463470458984,23.003494262695313)"/>
<path d="M0 0 C1.078125 1.50610352 1.078125 1.50610352 2.25 3.62890625 C2.68836182 4.40919189 3.12672363 5.18947754 3.57836914 5.9934082 C4.04750732 6.8412085 4.51664551 7.68900879 5 8.5625 C9.9619548 17.32663133 15.25961804 25.72925768 21 34 C21.39509766 34.57524414 21.79019531 35.15048828 22.19726562 35.74316406 C28.49952537 44.89742843 35.32100784 53.5676172 42.43115234 62.10644531 C43.83082468 63.79581018 45.20903102 65.49991029 46.58203125 67.2109375 C53.54475196 75.74627043 61.30034994 83.51283977 69.0625 91.3125 C69.61731049 91.87257751 70.17212097 92.43265503 70.7437439 93.00970459 C77.84077527 100.15873798 85.10908784 106.72677767 93 113 C94.10190022 113.93469458 95.19822515 114.87606468 96.28515625 115.828125 C110.74627655 128.43838462 126.59734295 139.09149631 143 149 C144.19520264 149.72437256 144.19520264 149.72437256 145.41455078 150.46337891 C177.8783144 169.97551458 212.45702151 184.11752785 249 194 C249.91652344 194.24975586 250.83304687 194.49951172 251.77734375 194.75683594 C265.61502502 198.46299054 279.60318266 200.61267689 293.78515625 202.54443359 C297.03130922 203.00443674 300.26393978 203.5248729 303.5 204.05078125 C398.18871897 218.48709128 501.38805843 189.30433041 585.06396484 130.44091797 C602.41036157 117.53064893 618.79937122 103.38846798 634.08666992 88.09863281 C635.55955972 86.6279359 637.04030265 85.16546466 638.52148438 83.703125 C644.79068862 77.47036128 650.49500448 70.92145658 656 64 C656.86335829 62.97242479 657.73174922 61.94901058 658.609375 60.93359375 C672.50901107 44.72580644 684.51631331 26.7573575 695.40625 8.4140625 C697 6 697 6 699 5 C701.14453125 5.92114258 701.14453125 5.92114258 703.8125 7.39453125 C704.79565186 7.93247314 705.77880371 8.47041504 706.79174805 9.0246582 C707.85047119 9.614646 708.90919434 10.20463379 710 10.8125 C711.0928833 11.41344482 712.1857666 12.01438965 713.31176758 12.63354492 C716.5457011 14.41432862 719.77357911 16.20564899 723 18 C724.52458599 18.84402749 726.04930555 19.68781382 727.57421875 20.53125 C730.39320027 22.09306875 733.20901933 23.66044336 736.0234375 25.23046875 C742.27557586 28.7149904 748.54466084 32.16883454 754.8125 35.625 C756.06339648 36.31485768 757.31429165 37.00471772 758.56518555 37.69458008 C761.10931979 39.09759363 763.65352147 40.50048483 766.19775391 41.90332031 C771.09913431 44.60594332 775.9997872 47.30988447 780.90039062 50.01391602 C783.30392663 51.34012432 785.70757876 52.6661218 788.11132812 53.99194336 C793.59736162 57.01799438 799.08281015 60.04508518 804.56565857 63.0769043 C816.58207597 69.72144442 828.60626782 76.34866966 840.6875 82.875 C853.84700261 89.98440583 867.00020539 97.09734602 879.8125 104.8203125 C881.87916926 106.1582207 881.87916926 106.1582207 884 106 C887.92157305 97.66801997 887.92157305 97.66801997 891 89 C892.83389546 94.50168638 889.30119063 99.92601672 887 105 C878.31174233 121.26155734 864.94649099 128.9514132 849.25 137.625 C847.03621941 138.85634138 844.82268299 140.08812184 842.609375 141.3203125 C841.50271484 141.93551758 840.39605469 142.55072266 839.25585938 143.18457031 C834.32463231 145.93416573 829.41200058 148.7162485 824.5 151.5 C813.40565342 157.78030513 802.28386176 164.01100939 791.15722656 170.23388672 C785.93706291 173.15398136 780.71859227 176.07709832 775.5 179 C769.22741152 182.51323852 762.95445881 186.02581749 756.6796875 189.53515625 C746.60795878 195.16934113 736.54338657 200.81542249 726.5 206.5 C713.30355826 213.96921324 700.06868279 221.369364 686.83398438 228.77050781 C675.71029032 234.99194386 664.59187595 241.22197534 653.5 247.5 C642.40527296 253.77963839 631.28386607 260.01100698 620.15722656 266.23388672 C614.93706291 269.15398136 609.71859227 272.07709832 604.5 275 C598.22741152 278.51323852 591.95445881 282.02581749 585.6796875 285.53515625 C575.60795878 291.16934113 565.54338657 296.81542249 555.5 302.5 C544.40527296 308.77963839 533.28386607 315.01100698 522.15722656 321.23388672 C516.93706291 324.15398136 511.71859227 327.07709832 506.5 330 C500.22741152 333.51323852 493.95445881 337.02581749 487.6796875 340.53515625 C477.60795878 346.16934113 467.54338657 351.81542249 457.5 357.5 C446.41554801 363.77382269 435.30438497 369.99930356 424.18798828 376.21630859 C419.87792856 378.62780318 415.56974065 381.04263092 411.26171875 383.45776367 C408.12242843 385.21642746 404.98117102 386.97154048 401.83984375 388.7265625 C398.15493647 390.7869278 394.48046576 392.86374088 390.81640625 394.9609375 C371.636215 405.89317832 353.01915768 411.62767806 330.93115234 405.61621094 C325.43571247 403.86267235 320.41010437 401.06271897 315.37304688 398.29980469 C312.72307146 396.8483161 310.05772809 395.42757344 307.390625 394.0078125 C295.9484802 387.89099534 284.64053813 381.55864568 273.39453125 375.08984375 C264.37180994 369.90664917 255.2737225 364.85644781 246.18945312 359.78222656 C240.95748051 356.85866563 235.72887166 353.9291023 230.5 351 C224.22743669 347.48671658 217.95445878 343.97418249 211.6796875 340.46484375 C200.65829479 334.2994112 189.64954681 328.1126603 178.65917969 321.89208984 C168.51007325 316.15088304 158.33414242 310.4578339 148.15722656 304.76611328 C141.89671092 301.26405868 135.63851388 297.75786247 129.37988281 294.25244141 C124.14724952 291.32187215 118.91405778 288.39230956 113.6796875 285.46484375 C102.65829479 279.2994112 91.64954681 273.1126603 80.65917969 266.89208984 C70.51007325 261.15088304 60.33414242 255.4578339 50.15722656 249.76611328 C43.89671092 246.26405868 37.63851388 242.75786247 31.37988281 239.25244141 C26.14724952 236.32187215 20.91405778 233.39230956 15.6796875 230.46484375 C4.65829479 224.2994112 -6.35045319 218.1126603 -17.34082031 211.89208984 C-28.53949514 205.55715696 -39.77038025 199.2798583 -51 193 C-64.1291297 185.65789261 -77.24965906 178.30171411 -90.34082031 170.89208984 C-97.34244415 166.93136969 -104.35553202 162.99150226 -111.375 159.0625 C-112.92695068 158.19371216 -112.92695068 158.19371216 -114.51025391 157.30737305 C-119.82782576 154.33166215 -125.14733101 151.35945043 -130.46875 148.390625 C-135.68648863 145.47917196 -140.89540117 142.55231986 -146.10205078 139.62109375 C-148.84930042 138.08430036 -151.60827916 136.57107795 -154.37109375 135.0625 C-171.06941214 125.84333351 -182.29861622 115.59774324 -190.46875 97.97265625 C-191 96 -191 96 -190 92 C-188.35 95.63 -186.7 99.26 -185 103 C-181.28539734 102.07134934 -178.85541364 100.95881328 -175.546875 99.11328125 C-174.46519043 98.51185303 -173.38350586 97.9104248 -172.26904297 97.29077148 C-171.09588871 96.63159664 -169.92287808 95.97216613 -168.75 95.3125 C-167.5314916 94.63145072 -166.31290324 93.95054448 -165.09423828 93.26977539 C-156.30974327 88.35055345 -147.60273155 83.30393964 -138.92285156 78.20239258 C-131.8319174 74.04263504 -124.68363435 69.99728204 -117.5 66 C-109.27796975 61.42433358 -101.1142887 56.76412135 -93 52 C-83.93956543 46.68243362 -74.81072113 41.50325479 -65.63452148 36.38842773 C-57.7515496 31.99082897 -49.89856557 27.542924 -42.0625 23.0625 C-41.48546326 22.73284241 -40.90842651 22.40318481 -40.31390381 22.0635376 C-33.70116954 18.28473312 -27.1020896 14.48348088 -20.51953125 10.65234375 C-19.30789461 9.94842903 -18.09622523 9.24457067 -16.88452148 8.54077148 C-14.58550201 7.20533932 -12.29015947 5.86417794 -9.99633789 4.51977539 C-8.97403076 3.92543701 -7.95172363 3.33109863 -6.8984375 2.71875 C-5.99786621 2.19216797 -5.09729492 1.66558594 -4.16943359 1.12304688 C-2 0 -2 0 0 0 Z " fill="#004482" transform="translate(193,793)"/>
<path d="M0 0 C0.76989258 0.1129541 1.53978516 0.2259082 2.33300781 0.34228516 C43.12113408 6.39968681 79.97997133 26.30249227 109.55566406 54.61865234 C110.83801618 55.84508039 112.13297661 57.05829487 113.4296875 58.26953125 C123.05984183 67.50556894 130.78715417 78.42760655 138.22265625 89.453125 C139.90376225 92.02056609 139.90376225 92.02056609 142 94 C141.1234375 94.41507812 140.246875 94.83015625 139.34375 95.2578125 C129.78177144 99.87180566 120.62468807 105.04900098 111.48242188 110.44189453 C104.20846132 114.72809278 96.87947573 118.89836968 89.5 123 C81.31785888 127.55226426 73.19685399 132.19248676 65.125 136.9375 C55.52434496 142.57899163 45.82047748 148.01212614 36.07128906 153.39208984 C27.61248188 158.07243587 19.2516336 162.90186334 10.91796875 167.80078125 C3.82838852 171.95900268 -3.31806095 176.0036613 -10.5 180 C-18.7220259 184.575664 -26.8858143 189.23570748 -35 194 C-44.14913289 199.37196793 -53.37403131 204.59076525 -62.64453125 209.75 C-69.81353695 213.74964452 -76.92092763 217.84348044 -84 222 C-93.15054061 227.37279449 -102.37668375 232.5927244 -111.64892578 237.75219727 C-118.77628267 241.72815635 -125.83939092 245.80163998 -132.875 249.9375 C-142.46405018 255.57217244 -152.15568572 260.99967294 -161.89355469 266.37231445 C-170.68734591 271.23735685 -179.38772456 276.248554 -188.04882812 281.34570312 C-188.96341797 281.88388672 -189.87800781 282.42207031 -190.8203125 282.9765625 C-191.68817383 283.48735352 -192.55603516 283.99814453 -193.45019531 284.52441406 C-196.67330303 286.38964415 -199.93745451 288.17359609 -203.21826172 289.93505859 C-205.16000824 290.99722221 -205.16000824 290.99722221 -207 293 C-214.82862389 276.05628496 -222.2875038 259.38320552 -226 241 C-226.18336914 240.10120117 -226.36673828 239.20240234 -226.55566406 238.27636719 C-236.7198485 186.49234123 -226.77828028 132.83905816 -197.9375 88.5 C-196.6459122 86.65187437 -195.33291216 84.81854682 -194 83 C-193.23171875 81.948125 -192.4634375 80.89625 -191.671875 79.8125 C-185.92314256 72.084677 -179.64630941 64.96280033 -173 58 C-172.19949219 57.14664063 -171.39898437 56.29328125 -170.57421875 55.4140625 C-163.93886415 48.52893187 -156.63783272 42.71507022 -149 37 C-148.16855469 36.37351562 -147.33710938 35.74703125 -146.48046875 35.1015625 C-121.19857376 16.75388403 -91.83639076 4.77508667 -61 0 C-60.27748047 -0.11569336 -59.55496094 -0.23138672 -58.81054688 -0.35058594 C-39.47064806 -3.32663429 -19.29931315 -3.13691266 0 0 Z " fill="#659AD2" transform="translate(573,402)"/>
<path d="M0 0 C3.16927242 0.96878077 5.78461255 2.3372097 8.67504883 3.96191406 C9.53228043 4.43958725 9.53228043 4.43958725 10.40682983 4.9269104 C12.27440026 5.96904194 14.13670634 7.02023565 15.99926758 8.07128906 C17.9625706 9.16919506 19.92724227 10.26462423 21.89198303 11.35995483 C23.22244029 12.10188039 24.5524656 12.84458107 25.88206482 13.58804321 C32.01507357 17.01525863 38.18902588 20.36433723 44.37426758 23.69628906 C51.77344285 27.69145764 59.15084793 31.72079749 66.49487305 35.81640625 C74.72859089 40.40783366 82.98525933 44.95756171 91.2409668 49.50927734 C92.5041504 50.20572915 93.76733399 50.90218098 95.03051758 51.59863281 C95.66208771 51.94682068 96.29365784 52.29500854 96.94436646 52.65374756 C101.3497624 55.08286557 105.75307936 57.51572172 110.15551758 59.95019531 C121.53823544 66.24287663 132.93079956 72.51440757 144.37426758 78.69628906 C172.32013179 93.79568001 172.32013179 93.79568001 183.68676758 100.82128906 C173.06587924 130.27011582 140.5734073 156.00087066 114.68676758 171.82128906 C113.58848633 172.500625 112.49020508 173.17996094 111.35864258 173.87988281 C101.86731248 179.54157158 91.95221355 183.77869196 81.68676758 187.82128906 C80.46860352 188.30726563 79.25043945 188.79324219 77.99536133 189.29394531 C68.76024769 192.79322939 59.34413283 194.88746914 49.68676758 196.82128906 C48.64133789 197.03785156 47.5959082 197.25441406 46.51879883 197.47753906 C34.90693632 199.75634613 23.17854352 200.05930842 11.37426758 200.07128906 C10.6786673 200.07229614 9.98306702 200.07330322 9.26638794 200.07434082 C-8.70777488 200.05687846 -26.1207902 198.24662264 -43.31323242 192.82128906 C-44.36172363 192.49837891 -44.36172363 192.49837891 -45.43139648 192.16894531 C-74.07343215 183.30206239 -99.30039408 169.23225299 -121.69433594 149.24926758 C-123.44177192 147.70790835 -125.21979486 146.20656952 -127.00073242 144.70410156 C-129.451773 142.60819586 -131.67353382 140.48524142 -133.75073242 138.00878906 C-135.53169821 135.90724943 -137.31014558 133.82462776 -139.18041992 131.80175781 C-147.38550001 122.92115908 -154.14282708 112.95194884 -160.50073242 102.69628906 C-161.09905884 101.755354 -161.09905884 101.755354 -161.70947266 100.79541016 C-164.34472332 96.43398427 -164.34472332 96.43398427 -164.20996094 93.81201172 C-162.92288664 90.9547278 -161.22516114 90.26552737 -158.48510742 88.79003906 C-156.9608313 87.95496826 -156.9608313 87.95496826 -155.40576172 87.10302734 C-154.30272705 86.51505371 -153.19969238 85.92708008 -152.06323242 85.32128906 C-149.75156511 84.05912756 -147.44037369 82.79609408 -145.12963867 81.53222656 C-143.39351318 80.59008301 -143.39351318 80.59008301 -141.62231445 79.62890625 C-137.04613211 77.1291236 -132.52023693 74.54673555 -128.00073242 71.94628906 C-126.28728827 70.96434805 -124.57374388 69.98258194 -122.86010742 69.00097656 C-121.97387695 68.49276367 -121.08764648 67.98455078 -120.17456055 67.4609375 C-115.29635015 64.6655398 -110.41388988 61.87758032 -105.53189087 59.08880615 C-102.54086915 57.38013407 -99.55011182 55.67099933 -96.55932617 53.96191406 C-95.34822716 53.26985458 -94.1371269 52.57779729 -92.92602539 51.88574219 C-92.32779968 51.54389893 -91.72957397 51.20205566 -91.11322021 50.84985352 C-87.00809733 48.50406901 -82.90297445 46.15828451 -78.79785156 43.8125 C-78.22310089 43.48407104 -77.64835022 43.15564209 -77.05618286 42.81726074 C-70.64186605 39.15193685 -64.22754924 35.48661296 -57.81323242 31.82128906 C-56.94717125 31.32639481 -56.94717125 31.32639481 -56.06361389 30.82150269 C-54.89568067 30.15411518 -53.72774242 29.48673645 -52.55979919 28.81936646 C-49.66246988 27.16380015 -46.76524422 25.50805309 -43.86816406 23.85205078 C-38.38757425 20.71951113 -32.90617106 17.58842707 -27.42196655 14.46221924 C-24.82380575 12.98105496 -22.22609418 11.49910381 -19.62841797 10.01708984 C-18.38678097 9.30901289 -17.14492258 8.60132402 -15.90283203 7.89404297 C-14.18360803 6.91503716 -12.46519818 5.93460204 -10.74682617 4.95410156 C-9.76770264 4.39609863 -8.7885791 3.8380957 -7.77978516 3.26318359 C-1.94114033 -0.14996461 -1.94114033 -0.14996461 0 0 Z " fill="#004482" transform="translate(531.313232421875,600.1787109375)"/>
</svg>
